<svg width="1440" height="40" viewBox="0 0 1440 40" fill="none" xmlns="http://www.w3.org/2000/svg">
<g clip-path="url(#clip0_1_70)">
<path d="M1205 1C1191.24 1 1180 12.2 1180 25.9V37H1230V25.9C1230 12.2 1218.81 1 1205 1ZM1180.95 36.05V25.9C1180.95 12.7 1191.75 1.95 1205 1.95C1218.25 1.95 1229.05 12.7 1229.05 25.9V36H1180.95V36.05Z" fill="#2D3185"/>
<path d="M1221.47 27.1H1208.82L1221.16 23.8C1221.42 23.75 1221.57 23.45 1221.52 23.2C1221.47 22.95 1221.16 22.8 1220.91 22.85L1208.61 26.2L1219.76 19.8C1220.01 19.65 1220.06 19.4 1219.91 19.15C1219.76 18.9 1219.51 18.85 1219.26 19L1208.06 25.4L1217.25 16.25C1217.35 16.15 1217.4 16.05 1217.4 15.9C1217.4 15.75 1217.35 15.65 1217.25 15.55C1217.15 15.45 1217.05 15.4 1216.9 15.4C1216.75 15.4 1216.65 15.45 1216.55 15.55L1207.46 24.65L1213.99 13.4C1214.14 13.15 1214.04 12.9 1213.84 12.75C1213.73 12.7 1213.58 12.65 1213.48 12.7C1213.38 12.75 1213.28 12.8 1213.18 12.9L1206.56 24.35L1210.02 11.55C1210.07 11.3 1209.92 11.05 1209.67 10.95C1209.42 10.9 1209.17 11.05 1209.07 11.3L1205.7 23.8V10.8C1205.7 10.55 1205.5 10.35 1205.25 10.35C1205 10.35 1204.8 10.55 1204.8 10.8V23.8L1201.39 11.2C1201.34 11.1 1201.29 10.95 1201.18 10.9C1201.08 10.85 1200.93 10.8 1200.83 10.85C1200.58 10.9 1200.43 11.2 1200.48 11.45L1203.95 24.35L1197.17 12.75C1197.02 12.5 1196.77 12.45 1196.52 12.6C1196.42 12.65 1196.32 12.75 1196.32 12.9C1196.27 13 1196.32 13.15 1196.37 13.25L1202.99 24.7L1193.65 15.35C1193.55 15.25 1193.45 15.2 1193.3 15.2C1193.15 15.2 1193.05 15.25 1192.95 15.35C1192.85 15.45 1192.8 15.55 1192.8 15.7C1192.8 15.85 1192.85 15.95 1192.95 16.05L1202.34 25.4L1190.89 18.8C1190.79 18.75 1190.64 18.7 1190.54 18.75C1190.44 18.8 1190.34 18.85 1190.24 18.95C1190.09 19.2 1190.19 19.45 1190.39 19.6L1201.84 26.2L1189.14 22.8C1189.04 22.75 1188.89 22.8 1188.79 22.85C1188.68 22.9 1188.58 23 1188.58 23.15C1188.53 23.25 1188.58 23.4 1188.63 23.5C1188.68 23.6 1188.79 23.7 1188.94 23.7L1201.59 27.1H1188.53C1188.28 27.1 1188.08 27.3 1188.08 27.55C1188.08 27.8 1188.28 28 1188.53 28H1221.47C1221.72 28 1221.92 27.8 1221.92 27.55C1221.92 27.3 1221.77 27.1 1221.47 27.1Z" fill="#2D3185"/>
</g>
<path d="M1281.88 18.5684C1281.83 19.6712 1281.55 20.5417 1281.06 21.1797C1280.57 21.8177 1279.91 22.1367 1279.08 22.1367C1278.23 22.1367 1277.69 21.7539 1277.44 20.9883C1277.2 21.3757 1276.92 21.665 1276.6 21.8564C1276.28 22.0433 1275.96 22.1367 1275.62 22.1367C1274.97 22.1367 1274.48 21.8724 1274.15 21.3438C1273.82 20.8151 1273.69 20.0837 1273.78 19.1494C1273.85 18.3975 1274.02 17.7275 1274.29 17.1396C1274.57 16.5472 1274.93 16.0824 1275.36 15.7451C1275.8 15.4079 1276.25 15.2393 1276.73 15.2393C1277.1 15.2393 1277.43 15.2894 1277.72 15.3896C1278.02 15.4854 1278.34 15.6768 1278.71 15.9639L1278.35 19.751C1278.27 20.8037 1278.56 21.3301 1279.23 21.3301C1279.74 21.3301 1280.16 21.0749 1280.48 20.5645C1280.8 20.054 1280.97 19.3887 1281 18.5684C1281.09 16.7956 1280.76 15.4443 1280.01 14.5146C1279.26 13.585 1278.13 13.1201 1276.61 13.1201C1275.69 13.1201 1274.88 13.348 1274.17 13.8037C1273.46 14.2549 1272.9 14.9089 1272.49 15.7656C1272.08 16.6224 1271.85 17.6113 1271.8 18.7324C1271.74 19.8626 1271.88 20.8447 1272.21 21.6787C1272.54 22.5081 1273.04 23.1416 1273.71 23.5791C1274.38 24.0212 1275.19 24.2422 1276.15 24.2422C1276.56 24.2422 1276.97 24.1921 1277.38 24.0918C1277.79 23.9915 1278.13 23.8617 1278.41 23.7021L1278.66 24.4883C1278.38 24.666 1278 24.8118 1277.53 24.9258C1277.07 25.0397 1276.6 25.0967 1276.12 25.0967C1274.98 25.0967 1274 24.8392 1273.18 24.3242C1272.36 23.8138 1271.74 23.0755 1271.33 22.1094C1270.93 21.1478 1270.75 20.0221 1270.81 18.7324C1270.86 17.4792 1271.14 16.3535 1271.65 15.3555C1272.15 14.3529 1272.84 13.5804 1273.71 13.0381C1274.57 12.4912 1275.55 12.2178 1276.64 12.2178C1277.77 12.2178 1278.75 12.473 1279.56 12.9834C1280.37 13.4938 1280.97 14.2298 1281.37 15.1914C1281.76 16.153 1281.94 17.2786 1281.88 18.5684ZM1274.87 19.1494C1274.8 19.7965 1274.86 20.2933 1275.04 20.6396C1275.23 20.986 1275.53 21.1592 1275.93 21.1592C1276.2 21.1592 1276.46 21.043 1276.71 20.8105C1276.97 20.5781 1277.18 20.2454 1277.34 19.8125L1277.35 19.751L1277.66 16.3125C1277.41 16.1803 1277.13 16.1143 1276.84 16.1143C1276.31 16.1143 1275.87 16.3854 1275.52 16.9277C1275.17 17.4701 1274.95 18.2106 1274.87 19.1494ZM1293.32 20.6943C1292.98 21.1774 1292.51 21.5397 1291.91 21.7812C1291.31 22.0182 1290.6 22.1367 1289.8 22.1367C1288.99 22.1367 1288.27 21.9476 1287.64 21.5693C1287.01 21.1865 1286.52 20.6442 1286.18 19.9424C1285.84 19.2406 1285.66 18.4271 1285.65 17.502V16.6338C1285.65 15.1344 1286 13.9723 1286.7 13.1475C1287.4 12.3226 1288.38 11.9102 1289.65 11.9102C1290.69 11.9102 1291.53 12.1768 1292.16 12.71C1292.79 13.2386 1293.18 13.9906 1293.32 14.9658H1292.01C1291.76 13.6488 1290.98 12.9902 1289.66 12.9902C1288.78 12.9902 1288.11 13.3001 1287.66 13.9199C1287.2 14.5352 1286.98 15.4284 1286.97 16.5996V17.4131C1286.97 18.5296 1287.23 19.4183 1287.74 20.0791C1288.25 20.7354 1288.94 21.0635 1289.81 21.0635C1290.3 21.0635 1290.73 21.0088 1291.1 20.8994C1291.47 20.79 1291.77 20.6055 1292.02 20.3457V18.1104H1289.71V17.0439H1293.32V20.6943ZM1303.25 19.4023H1299.08L1298.15 22H1296.79L1300.59 12.0469H1301.74L1305.55 22H1304.2L1303.25 19.4023ZM1299.48 18.3223H1302.86L1301.17 13.667L1299.48 18.3223ZM1312.78 17.9736H1310.44V22H1309.12V12.0469H1312.42C1313.54 12.0469 1314.4 12.3021 1315 12.8125C1315.61 13.3229 1315.91 14.0658 1315.91 15.041C1315.91 15.6608 1315.74 16.2008 1315.4 16.6611C1315.07 17.1214 1314.61 17.4655 1314.01 17.6934L1316.35 21.918V22H1314.94L1312.78 17.9736ZM1310.44 16.9004H1312.46C1313.11 16.9004 1313.63 16.7318 1314.01 16.3945C1314.4 16.0573 1314.59 15.6061 1314.59 15.041C1314.59 14.4258 1314.41 13.9541 1314.04 13.626C1313.67 13.2979 1313.14 13.1315 1312.45 13.127H1310.44V16.9004ZM1320 22V12.0469H1322.81C1323.67 12.0469 1324.44 12.2383 1325.1 12.6211C1325.77 13.0039 1326.28 13.5485 1326.64 14.2549C1327.01 14.9613 1327.19 15.7725 1327.19 16.6885V17.3242C1327.19 18.263 1327.01 19.0856 1326.65 19.792C1326.29 20.4984 1325.77 21.0407 1325.1 21.4189C1324.43 21.7972 1323.64 21.9909 1322.75 22H1320ZM1321.31 13.127V20.9268H1322.69C1323.7 20.9268 1324.49 20.6123 1325.05 19.9834C1325.61 19.3545 1325.9 18.459 1325.9 17.2969V16.7158C1325.9 15.5856 1325.63 14.7083 1325.1 14.084C1324.57 13.4551 1323.82 13.1361 1322.84 13.127H1321.31ZM1337.05 17.3994H1332.74V20.9268H1337.75V22H1331.42V12.0469H1337.68V13.127H1332.74V16.3262H1337.05V17.3994ZM1349.27 22H1347.95L1342.94 14.3301V22H1341.62V12.0469H1342.94L1347.96 19.751V12.0469H1349.27V22ZM1361.16 18.8418C1361.04 19.8945 1360.65 20.708 1359.99 21.2822C1359.34 21.8519 1358.47 22.1367 1357.39 22.1367C1356.21 22.1367 1355.27 21.7152 1354.56 20.8721C1353.85 20.029 1353.5 18.901 1353.5 17.4883V16.5312C1353.5 15.6061 1353.66 14.7926 1353.99 14.0908C1354.32 13.389 1354.79 12.8512 1355.4 12.4775C1356.01 12.0993 1356.71 11.9102 1357.51 11.9102C1358.56 11.9102 1359.41 12.2064 1360.05 12.7988C1360.69 13.3867 1361.06 14.2025 1361.16 15.2461H1359.84C1359.73 14.4531 1359.48 13.8789 1359.1 13.5234C1358.72 13.168 1358.19 12.9902 1357.51 12.9902C1356.67 12.9902 1356.01 13.3001 1355.53 13.9199C1355.06 14.5397 1354.82 15.4215 1354.82 16.5654V17.5293C1354.82 18.6094 1355.04 19.4684 1355.5 20.1064C1355.95 20.7445 1356.58 21.0635 1357.39 21.0635C1358.12 21.0635 1358.68 20.8994 1359.06 20.5713C1359.46 20.2386 1359.72 19.6621 1359.84 18.8418H1361.16ZM1366.61 22H1365.3V12.0469H1366.61V22ZM1377.93 13.127H1374.73V22H1373.42V13.127H1370.23V12.0469H1377.93V13.127ZM1384.79 17.0439L1387.39 12.0469H1388.88L1385.44 18.2881V22H1384.13V18.2881L1380.7 12.0469H1382.2L1384.79 17.0439ZM1399.52 18.8418C1399.39 19.8945 1399 20.708 1398.35 21.2822C1397.7 21.8519 1396.83 22.1367 1395.74 22.1367C1394.57 22.1367 1393.62 21.7152 1392.91 20.8721C1392.21 20.029 1391.85 18.901 1391.85 17.4883V16.5312C1391.85 15.6061 1392.02 14.7926 1392.35 14.0908C1392.68 13.389 1393.15 12.8512 1393.75 12.4775C1394.36 12.0993 1395.06 11.9102 1395.86 11.9102C1396.92 11.9102 1397.76 12.2064 1398.4 12.7988C1399.04 13.3867 1399.41 14.2025 1399.52 15.2461H1398.2C1398.08 14.4531 1397.84 13.8789 1397.45 13.5234C1397.07 13.168 1396.54 12.9902 1395.86 12.9902C1395.02 12.9902 1394.36 13.3001 1393.88 13.9199C1393.41 14.5397 1393.17 15.4215 1393.17 16.5654V17.5293C1393.17 18.6094 1393.4 19.4684 1393.85 20.1064C1394.3 20.7445 1394.93 21.0635 1395.74 21.0635C1396.47 21.0635 1397.03 20.8994 1397.42 20.5713C1397.81 20.2386 1398.07 19.6621 1398.2 18.8418H1399.52ZM1409.18 17.3994H1404.87V20.9268H1409.88V22H1403.55V12.0469H1409.81V13.127H1404.87V16.3262H1409.18V17.3994ZM1421.4 22H1420.08L1415.07 14.3301V22H1413.75V12.0469H1415.07L1420.1 19.751V12.0469H1421.4V22ZM1432.64 13.127H1429.44V22H1428.14V13.127H1424.95V12.0469H1432.64V13.127ZM1441.99 17.3994H1437.67V20.9268H1442.68V22H1436.36V12.0469H1442.62V13.127H1437.67V16.3262H1441.99V17.3994ZM1450.21 17.9736H1447.87V22H1446.55V12.0469H1449.85C1450.97 12.0469 1451.83 12.3021 1452.43 12.8125C1453.04 13.3229 1453.34 14.0658 1453.34 15.041C1453.34 15.6608 1453.17 16.2008 1452.83 16.6611C1452.5 17.1214 1452.04 17.4655 1451.44 17.6934L1453.78 21.918V22H1452.37L1450.21 17.9736ZM1447.87 16.9004H1449.89C1450.54 16.9004 1451.06 16.7318 1451.44 16.3945C1451.83 16.0573 1452.02 15.6061 1452.02 15.041C1452.02 14.4258 1451.84 13.9541 1451.47 13.626C1451.1 13.2979 1450.57 13.1315 1449.88 13.127H1447.87V16.9004Z" fill="#171C8F"/>
<path d="M958.881 18.5684C958.826 19.6712 958.553 20.5417 958.061 21.1797C957.568 21.8177 956.91 22.1367 956.085 22.1367C955.233 22.1367 954.686 21.7539 954.444 20.9883C954.198 21.3757 953.916 21.665 953.597 21.8564C953.282 22.0433 952.956 22.1367 952.619 22.1367C951.972 22.1367 951.482 21.8724 951.149 21.3438C950.817 20.8151 950.694 20.0837 950.78 19.1494C950.849 18.3975 951.02 17.7275 951.293 17.1396C951.571 16.5472 951.926 16.0824 952.359 15.7451C952.797 15.4079 953.255 15.2393 953.733 15.2393C954.103 15.2393 954.433 15.2894 954.725 15.3896C955.016 15.4854 955.344 15.6768 955.709 15.9639L955.354 19.751C955.267 20.8037 955.559 21.3301 956.229 21.3301C956.743 21.3301 957.16 21.0749 957.479 20.5645C957.799 20.054 957.972 19.3887 957.999 18.5684C958.086 16.7956 957.755 15.4443 957.008 14.5146C956.265 13.585 955.132 13.1201 953.61 13.1201C952.694 13.1201 951.881 13.348 951.17 13.8037C950.459 14.2549 949.898 14.9089 949.488 15.7656C949.078 16.6224 948.848 17.6113 948.798 18.7324C948.743 19.8626 948.88 20.8447 949.208 21.6787C949.536 22.5081 950.035 23.1416 950.705 23.5791C951.38 24.0212 952.193 24.2422 953.146 24.2422C953.556 24.2422 953.966 24.1921 954.376 24.0918C954.791 23.9915 955.135 23.8617 955.408 23.7021L955.661 24.4883C955.379 24.666 955.003 24.8118 954.533 24.9258C954.068 25.0397 953.597 25.0967 953.118 25.0967C951.979 25.0967 950.999 24.8392 950.179 24.3242C949.358 23.8138 948.743 23.0755 948.333 22.1094C947.927 21.1478 947.752 20.0221 947.807 18.7324C947.861 17.4792 948.142 16.3535 948.647 15.3555C949.153 14.3529 949.839 13.5804 950.705 13.0381C951.571 12.4912 952.549 12.2178 953.638 12.2178C954.772 12.2178 955.745 12.473 956.557 12.9834C957.368 13.4938 957.972 14.2298 958.368 15.1914C958.765 16.153 958.936 17.2786 958.881 18.5684ZM951.867 19.1494C951.803 19.7965 951.863 20.2933 952.045 20.6396C952.232 20.986 952.526 21.1592 952.927 21.1592C953.2 21.1592 953.462 21.043 953.713 20.8105C953.968 20.5781 954.178 20.2454 954.342 19.8125L954.349 19.751L954.663 16.3125C954.408 16.1803 954.134 16.1143 953.843 16.1143C953.31 16.1143 952.868 16.3854 952.517 16.9277C952.17 17.4701 951.954 18.2106 951.867 19.1494ZM970.322 20.6943C969.985 21.1774 969.513 21.5397 968.907 21.7812C968.305 22.0182 967.604 22.1367 966.802 22.1367C965.99 22.1367 965.27 21.9476 964.641 21.5693C964.012 21.1865 963.525 20.6442 963.178 19.9424C962.837 19.2406 962.661 18.4271 962.652 17.502V16.6338C962.652 15.1344 963.001 13.9723 963.698 13.1475C964.4 12.3226 965.384 11.9102 966.651 11.9102C967.69 11.9102 968.526 12.1768 969.16 12.71C969.793 13.2386 970.181 13.9906 970.322 14.9658H969.01C968.763 13.6488 967.98 12.9902 966.658 12.9902C965.778 12.9902 965.111 13.3001 964.655 13.9199C964.204 14.5352 963.976 15.4284 963.971 16.5996V17.4131C963.971 18.5296 964.227 19.4183 964.737 20.0791C965.247 20.7354 965.938 21.0635 966.808 21.0635C967.301 21.0635 967.731 21.0088 968.1 20.8994C968.469 20.79 968.775 20.6055 969.016 20.3457V18.1104H966.713V17.0439H970.322V20.6943ZM980.252 19.4023H976.083L975.146 22H973.792L977.593 12.0469H978.742L982.549 22H981.203L980.252 19.4023ZM976.479 18.3223H979.863L978.167 13.667L976.479 18.3223ZM989.78 17.9736H987.442V22H986.122V12.0469H989.417C990.538 12.0469 991.4 12.3021 992.001 12.8125C992.607 13.3229 992.91 14.0658 992.91 15.041C992.91 15.6608 992.742 16.2008 992.405 16.6611C992.072 17.1214 991.607 17.4655 991.01 17.6934L993.348 21.918V22H991.94L989.78 17.9736ZM987.442 16.9004H989.458C990.11 16.9004 990.627 16.7318 991.01 16.3945C991.397 16.0573 991.591 15.6061 991.591 15.041C991.591 14.4258 991.407 13.9541 991.037 13.626C990.673 13.2979 990.144 13.1315 989.451 13.127H987.442V16.9004ZM996.996 22V12.0469H999.806C1000.67 12.0469 1001.44 12.2383 1002.1 12.6211C1002.77 13.0039 1003.28 13.5485 1003.64 14.2549C1004.01 14.9613 1004.19 15.7725 1004.19 16.6885V17.3242C1004.19 18.263 1004.01 19.0856 1003.65 19.792C1003.29 20.4984 1002.77 21.0407 1002.1 21.4189C1001.43 21.7972 1000.64 21.9909 999.751 22H996.996ZM998.309 13.127V20.9268H999.689C1000.7 20.9268 1001.49 20.6123 1002.05 19.9834C1002.61 19.3545 1002.9 18.459 1002.9 17.2969V16.7158C1002.9 15.5856 1002.63 14.7083 1002.1 14.084C1001.57 13.4551 1000.82 13.1361 999.84 13.127H998.309ZM1014.05 17.3994H1009.74V20.9268H1014.75V22H1008.42V12.0469H1014.68V13.127H1009.74V16.3262H1014.05V17.3994ZM1026.27 22H1024.95L1019.94 14.3301V22H1018.62V12.0469H1019.94L1024.96 19.751V12.0469H1026.27V22ZM1038.16 18.8418C1038.04 19.8945 1037.65 20.708 1036.99 21.2822C1036.34 21.8519 1035.47 22.1367 1034.39 22.1367C1033.21 22.1367 1032.27 21.7152 1031.56 20.8721C1030.85 20.029 1030.5 18.901 1030.5 17.4883V16.5312C1030.5 15.6061 1030.66 14.7926 1030.99 14.0908C1031.32 13.389 1031.79 12.8512 1032.4 12.4775C1033.01 12.0993 1033.71 11.9102 1034.51 11.9102C1035.56 11.9102 1036.41 12.2064 1037.05 12.7988C1037.69 13.3867 1038.06 14.2025 1038.16 15.2461H1036.84C1036.73 14.4531 1036.48 13.8789 1036.1 13.5234C1035.72 13.168 1035.19 12.9902 1034.51 12.9902C1033.67 12.9902 1033.01 13.3001 1032.53 13.9199C1032.06 14.5397 1031.82 15.4215 1031.82 16.5654V17.5293C1031.82 18.6094 1032.04 19.4684 1032.5 20.1064C1032.95 20.7445 1033.58 21.0635 1034.39 21.0635C1035.12 21.0635 1035.68 20.8994 1036.06 20.5713C1036.46 20.2386 1036.72 19.6621 1036.84 18.8418H1038.16ZM1043.61 22H1042.3V12.0469H1043.61V22ZM1054.93 13.127H1051.73V22H1050.42V13.127H1047.23V12.0469H1054.93V13.127ZM1061.79 17.0439L1064.39 12.0469H1065.88L1062.44 18.2881V22H1061.13V18.2881L1057.7 12.0469H1059.2L1061.79 17.0439ZM1076.52 18.8418C1076.39 19.8945 1076 20.708 1075.35 21.2822C1074.7 21.8519 1073.83 22.1367 1072.74 22.1367C1071.57 22.1367 1070.62 21.7152 1069.91 20.8721C1069.21 20.029 1068.85 18.901 1068.85 17.4883V16.5312C1068.85 15.6061 1069.02 14.7926 1069.35 14.0908C1069.68 13.389 1070.15 12.8512 1070.75 12.4775C1071.36 12.0993 1072.06 11.9102 1072.86 11.9102C1073.92 11.9102 1074.76 12.2064 1075.4 12.7988C1076.04 13.3867 1076.41 14.2025 1076.52 15.2461H1075.2C1075.08 14.4531 1074.84 13.8789 1074.45 13.5234C1074.07 13.168 1073.54 12.9902 1072.86 12.9902C1072.02 12.9902 1071.36 13.3001 1070.88 13.9199C1070.41 14.5397 1070.17 15.4215 1070.17 16.5654V17.5293C1070.17 18.6094 1070.4 19.4684 1070.85 20.1064C1071.3 20.7445 1071.93 21.0635 1072.74 21.0635C1073.47 21.0635 1074.03 20.8994 1074.42 20.5713C1074.81 20.2386 1075.07 19.6621 1075.2 18.8418H1076.52ZM1086.18 17.3994H1081.87V20.9268H1086.88V22H1080.55V12.0469H1086.81V13.127H1081.87V16.3262H1086.18V17.3994ZM1098.4 22H1097.08L1092.07 14.3301V22H1090.75V12.0469H1092.07L1097.1 19.751V12.0469H1098.4V22ZM1109.64 13.127H1106.44V22H1105.14V13.127H1101.95V12.0469H1109.64V13.127ZM1118.99 17.3994H1114.67V20.9268H1119.68V22H1113.36V12.0469H1119.62V13.127H1114.67V16.3262H1118.99V17.3994ZM1127.21 17.9736H1124.87V22H1123.55V12.0469H1126.85C1127.97 12.0469 1128.83 12.3021 1129.43 12.8125C1130.04 13.3229 1130.34 14.0658 1130.34 15.041C1130.34 15.6608 1130.17 16.2008 1129.83 16.6611C1129.5 17.1214 1129.04 17.4655 1128.44 17.6934L1130.78 21.918V22H1129.37L1127.21 17.9736ZM1124.87 16.9004H1126.89C1127.54 16.9004 1128.06 16.7318 1128.44 16.3945C1128.83 16.0573 1129.02 15.6061 1129.02 15.041C1129.02 14.4258 1128.84 13.9541 1128.47 13.626C1128.1 13.2979 1127.57 13.1315 1126.88 13.127H1124.87V16.9004Z" fill="#171C8F"/>
<g clip-path="url(#clip1_1_70)">
<path d="M883 1C869.245 1 858 12.2 858 25.9V37H908V25.9C908 12.2 896.805 1 883 1ZM858.954 36.05V25.9C858.954 12.7 869.747 1.95 883 1.95C896.253 1.95 907.046 12.7 907.046 25.9V36H858.954V36.05Z" fill="#2D3185"/>
<path d="M899.466 27.1H886.815L899.165 23.8C899.416 23.75 899.566 23.45 899.516 23.2C899.466 22.95 899.165 22.8 898.914 22.85L886.614 26.2L897.759 19.8C898.01 19.65 898.06 19.4 897.91 19.15C897.759 18.9 897.508 18.85 897.257 19L886.062 25.4L895.249 16.25C895.349 16.15 895.4 16.05 895.4 15.9C895.4 15.75 895.349 15.65 895.249 15.55C895.149 15.45 895.048 15.4 894.898 15.4C894.747 15.4 894.647 15.45 894.546 15.55L885.46 24.65L891.986 13.4C892.137 13.15 892.036 12.9 891.835 12.75C891.735 12.7 891.584 12.65 891.484 12.7C891.384 12.75 891.283 12.8 891.183 12.9L884.556 24.35L888.02 11.55C888.07 11.3 887.92 11.05 887.669 10.95C887.418 10.9 887.167 11.05 887.066 11.3L883.703 23.8V10.8C883.703 10.55 883.502 10.35 883.251 10.35C883 10.35 882.799 10.55 882.799 10.8V23.8L879.386 11.2C879.335 11.1 879.285 10.95 879.185 10.9C879.084 10.85 878.934 10.8 878.833 10.85C878.582 10.9 878.432 11.2 878.482 11.45L881.946 24.35L875.169 12.75C875.018 12.5 874.767 12.45 874.516 12.6C874.416 12.65 874.315 12.75 874.315 12.9C874.265 13 874.315 13.15 874.365 13.25L880.992 24.7L871.655 15.35C871.554 15.25 871.454 15.2 871.303 15.2C871.153 15.2 871.052 15.25 870.952 15.35C870.851 15.45 870.801 15.55 870.801 15.7C870.801 15.85 870.851 15.95 870.952 16.05L880.339 25.4L868.894 18.8C868.793 18.75 868.643 18.7 868.542 18.75C868.442 18.8 868.341 18.85 868.241 18.95C868.09 19.2 868.191 19.45 868.392 19.6L879.837 26.2L867.137 22.8C867.036 22.75 866.886 22.8 866.785 22.85C866.685 22.9 866.584 23 866.584 23.15C866.534 23.25 866.584 23.4 866.635 23.5C866.685 23.6 866.785 23.7 866.936 23.7L879.586 27.1H866.534C866.283 27.1 866.082 27.3 866.082 27.55C866.082 27.8 866.283 28 866.534 28H899.466C899.717 28 899.918 27.8 899.918 27.55C899.918 27.3 899.767 27.1 899.466 27.1Z" fill="#2D3185"/>
</g>
<g clip-path="url(#clip2_1_70)">
<path d="M560 1C546.245 1 535 12.2 535 25.9V37H585V25.9C585 12.2 573.805 1 560 1ZM535.954 36.05V25.9C535.954 12.7 546.747 1.95 560 1.95C573.253 1.95 584.046 12.7 584.046 25.9V36H535.954V36.05Z" fill="#2D3185"/>
<path d="M576.466 27.1H563.815L576.165 23.8C576.416 23.75 576.566 23.45 576.516 23.2C576.466 22.95 576.165 22.8 575.914 22.85L563.614 26.2L574.759 19.8C575.01 19.65 575.06 19.4 574.91 19.15C574.759 18.9 574.508 18.85 574.257 19L563.062 25.4L572.249 16.25C572.349 16.15 572.4 16.05 572.4 15.9C572.4 15.75 572.349 15.65 572.249 15.55C572.149 15.45 572.048 15.4 571.898 15.4C571.747 15.4 571.647 15.45 571.546 15.55L562.46 24.65L568.986 13.4C569.137 13.15 569.036 12.9 568.835 12.75C568.735 12.7 568.584 12.65 568.484 12.7C568.384 12.75 568.283 12.8 568.183 12.9L561.556 24.35L565.02 11.55C565.07 11.3 564.92 11.05 564.669 10.95C564.418 10.9 564.167 11.05 564.066 11.3L560.703 23.8V10.8C560.703 10.55 560.502 10.35 560.251 10.35C560 10.35 559.799 10.55 559.799 10.8V23.8L556.386 11.2C556.335 11.1 556.285 10.95 556.185 10.9C556.084 10.85 555.934 10.8 555.833 10.85C555.582 10.9 555.432 11.2 555.482 11.45L558.946 24.35L552.169 12.75C552.018 12.5 551.767 12.45 551.516 12.6C551.416 12.65 551.315 12.75 551.315 12.9C551.265 13 551.315 13.15 551.365 13.25L557.992 24.7L548.655 15.35C548.554 15.25 548.454 15.2 548.303 15.2C548.153 15.2 548.052 15.25 547.952 15.35C547.851 15.45 547.801 15.55 547.801 15.7C547.801 15.85 547.851 15.95 547.952 16.05L557.339 25.4L545.894 18.8C545.793 18.75 545.643 18.7 545.542 18.75C545.442 18.8 545.341 18.85 545.241 18.95C545.09 19.2 545.191 19.45 545.392 19.6L556.837 26.2L544.137 22.8C544.036 22.75 543.886 22.8 543.785 22.85C543.685 22.9 543.584 23 543.584 23.15C543.534 23.25 543.584 23.4 543.635 23.5C543.685 23.6 543.785 23.7 543.936 23.7L556.586 27.1H543.534C543.283 27.1 543.082 27.3 543.082 27.55C543.082 27.8 543.283 28 543.534 28H576.466C576.717 28 576.918 27.8 576.918 27.55C576.918 27.3 576.767 27.1 576.466 27.1Z" fill="#2D3185"/>
</g>
<path d="M635.881 18.5684C635.826 19.6712 635.553 20.5417 635.061 21.1797C634.568 21.8177 633.91 22.1367 633.085 22.1367C632.233 22.1367 631.686 21.7539 631.444 20.9883C631.198 21.3757 630.916 21.665 630.597 21.8564C630.282 22.0433 629.956 22.1367 629.619 22.1367C628.972 22.1367 628.482 21.8724 628.149 21.3438C627.817 20.8151 627.694 20.0837 627.78 19.1494C627.849 18.3975 628.02 17.7275 628.293 17.1396C628.571 16.5472 628.926 16.0824 629.359 15.7451C629.797 15.4079 630.255 15.2393 630.733 15.2393C631.103 15.2393 631.433 15.2894 631.725 15.3896C632.016 15.4854 632.344 15.6768 632.709 15.9639L632.354 19.751C632.267 20.8037 632.559 21.3301 633.229 21.3301C633.743 21.3301 634.16 21.0749 634.479 20.5645C634.799 20.054 634.972 19.3887 634.999 18.5684C635.086 16.7956 634.755 15.4443 634.008 14.5146C633.265 13.585 632.132 13.1201 630.61 13.1201C629.694 13.1201 628.881 13.348 628.17 13.8037C627.459 14.2549 626.898 14.9089 626.488 15.7656C626.078 16.6224 625.848 17.6113 625.798 18.7324C625.743 19.8626 625.88 20.8447 626.208 21.6787C626.536 22.5081 627.035 23.1416 627.705 23.5791C628.38 24.0212 629.193 24.2422 630.146 24.2422C630.556 24.2422 630.966 24.1921 631.376 24.0918C631.791 23.9915 632.135 23.8617 632.408 23.7021L632.661 24.4883C632.379 24.666 632.003 24.8118 631.533 24.9258C631.068 25.0397 630.597 25.0967 630.118 25.0967C628.979 25.0967 627.999 24.8392 627.179 24.3242C626.358 23.8138 625.743 23.0755 625.333 22.1094C624.927 21.1478 624.752 20.0221 624.807 18.7324C624.861 17.4792 625.142 16.3535 625.647 15.3555C626.153 14.3529 626.839 13.5804 627.705 13.0381C628.571 12.4912 629.549 12.2178 630.638 12.2178C631.772 12.2178 632.745 12.473 633.557 12.9834C634.368 13.4938 634.972 14.2298 635.368 15.1914C635.765 16.153 635.936 17.2786 635.881 18.5684ZM628.867 19.1494C628.803 19.7965 628.863 20.2933 629.045 20.6396C629.232 20.986 629.526 21.1592 629.927 21.1592C630.2 21.1592 630.462 21.043 630.713 20.8105C630.968 20.5781 631.178 20.2454 631.342 19.8125L631.349 19.751L631.663 16.3125C631.408 16.1803 631.134 16.1143 630.843 16.1143C630.31 16.1143 629.868 16.3854 629.517 16.9277C629.17 17.4701 628.954 18.2106 628.867 19.1494ZM647.322 20.6943C646.985 21.1774 646.513 21.5397 645.907 21.7812C645.305 22.0182 644.604 22.1367 643.802 22.1367C642.99 22.1367 642.27 21.9476 641.641 21.5693C641.012 21.1865 640.525 20.6442 640.178 19.9424C639.837 19.2406 639.661 18.4271 639.652 17.502V16.6338C639.652 15.1344 640.001 13.9723 640.698 13.1475C641.4 12.3226 642.384 11.9102 643.651 11.9102C644.69 11.9102 645.526 12.1768 646.16 12.71C646.793 13.2386 647.181 13.9906 647.322 14.9658H646.01C645.763 13.6488 644.98 12.9902 643.658 12.9902C642.778 12.9902 642.111 13.3001 641.655 13.9199C641.204 14.5352 640.976 15.4284 640.971 16.5996V17.4131C640.971 18.5296 641.227 19.4183 641.737 20.0791C642.247 20.7354 642.938 21.0635 643.808 21.0635C644.301 21.0635 644.731 21.0088 645.1 20.8994C645.469 20.79 645.775 20.6055 646.016 20.3457V18.1104H643.713V17.0439H647.322V20.6943ZM657.252 19.4023H653.083L652.146 22H650.792L654.593 12.0469H655.742L659.549 22H658.203L657.252 19.4023ZM653.479 18.3223H656.863L655.167 13.667L653.479 18.3223ZM666.78 17.9736H664.442V22H663.122V12.0469H666.417C667.538 12.0469 668.4 12.3021 669.001 12.8125C669.607 13.3229 669.91 14.0658 669.91 15.041C669.91 15.6608 669.742 16.2008 669.405 16.6611C669.072 17.1214 668.607 17.4655 668.01 17.6934L670.348 21.918V22H668.94L666.78 17.9736ZM664.442 16.9004H666.458C667.11 16.9004 667.627 16.7318 668.01 16.3945C668.397 16.0573 668.591 15.6061 668.591 15.041C668.591 14.4258 668.407 13.9541 668.037 13.626C667.673 13.2979 667.144 13.1315 666.451 13.127H664.442V16.9004ZM673.996 22V12.0469H676.806C677.672 12.0469 678.437 12.2383 679.103 12.6211C679.768 13.0039 680.281 13.5485 680.641 14.2549C681.005 14.9613 681.19 15.7725 681.194 16.6885V17.3242C681.194 18.263 681.012 19.0856 680.647 19.792C680.287 20.4984 679.77 21.0407 679.096 21.4189C678.426 21.7972 677.644 21.9909 676.751 22H673.996ZM675.309 13.127V20.9268H676.689C677.701 20.9268 678.487 20.6123 679.048 19.9834C679.613 19.3545 679.896 18.459 679.896 17.2969V16.7158C679.896 15.5856 679.629 14.7083 679.096 14.084C678.567 13.4551 677.815 13.1361 676.84 13.127H675.309ZM691.05 17.3994H686.736V20.9268H691.747V22H685.424V12.0469H691.679V13.127H686.736V16.3262H691.05V17.3994ZM703.27 22H701.951L696.94 14.3301V22H695.621V12.0469H696.94L701.964 19.751V12.0469H703.27V22ZM715.162 18.8418C715.039 19.8945 714.65 20.708 713.993 21.2822C713.342 21.8519 712.474 22.1367 711.389 22.1367C710.213 22.1367 709.27 21.7152 708.559 20.8721C707.853 20.029 707.499 18.901 707.499 17.4883V16.5312C707.499 15.6061 707.663 14.7926 707.992 14.0908C708.324 13.389 708.794 12.8512 709.4 12.4775C710.006 12.0993 710.708 11.9102 711.505 11.9102C712.562 11.9102 713.41 12.2064 714.048 12.7988C714.686 13.3867 715.058 14.2025 715.162 15.2461H713.843C713.729 14.4531 713.481 13.8789 713.098 13.5234C712.72 13.168 712.189 12.9902 711.505 12.9902C710.667 12.9902 710.008 13.3001 709.53 13.9199C709.056 14.5397 708.819 15.4215 708.819 16.5654V17.5293C708.819 18.6094 709.044 19.4684 709.495 20.1064C709.947 20.7445 710.578 21.0635 711.389 21.0635C712.118 21.0635 712.676 20.8994 713.064 20.5713C713.456 20.2386 713.715 19.6621 713.843 18.8418H715.162ZM720.608 22H719.296V12.0469H720.608V22ZM731.927 13.127H728.727V22H727.422V13.127H724.229V12.0469H731.927V13.127ZM738.788 17.0439L741.385 12.0469H742.876L739.444 18.2881V22H738.131V18.2881L734.7 12.0469H736.204L738.788 17.0439ZM753.517 18.8418C753.394 19.8945 753.004 20.708 752.348 21.2822C751.696 21.8519 750.828 22.1367 749.744 22.1367C748.568 22.1367 747.624 21.7152 746.913 20.8721C746.207 20.029 745.854 18.901 745.854 17.4883V16.5312C745.854 15.6061 746.018 14.7926 746.346 14.0908C746.679 13.389 747.148 12.8512 747.754 12.4775C748.36 12.0993 749.062 11.9102 749.86 11.9102C750.917 11.9102 751.765 12.2064 752.403 12.7988C753.041 13.3867 753.412 14.2025 753.517 15.2461H752.198C752.084 14.4531 751.835 13.8789 751.452 13.5234C751.074 13.168 750.543 12.9902 749.86 12.9902C749.021 12.9902 748.363 13.3001 747.884 13.9199C747.41 14.5397 747.173 15.4215 747.173 16.5654V17.5293C747.173 18.6094 747.399 19.4684 747.85 20.1064C748.301 20.7445 748.932 21.0635 749.744 21.0635C750.473 21.0635 751.031 20.8994 751.418 20.5713C751.81 20.2386 752.07 19.6621 752.198 18.8418H753.517ZM763.181 17.3994H758.867V20.9268H763.878V22H757.555V12.0469H763.81V13.127H758.867V16.3262H763.181V17.3994ZM775.401 22H774.082L769.071 14.3301V22H767.752V12.0469H769.071L774.096 19.751V12.0469H775.401V22ZM786.644 13.127H783.445V22H782.139V13.127H778.947V12.0469H786.644V13.127ZM795.987 17.3994H791.673V20.9268H796.684V22H790.361V12.0469H796.616V13.127H791.673V16.3262H795.987V17.3994ZM804.208 17.9736H801.87V22H800.551V12.0469H803.846C804.967 12.0469 805.828 12.3021 806.43 12.8125C807.036 13.3229 807.339 14.0658 807.339 15.041C807.339 15.6608 807.17 16.2008 806.833 16.6611C806.5 17.1214 806.036 17.4655 805.439 17.6934L807.777 21.918V22H806.368L804.208 17.9736ZM801.87 16.9004H803.887C804.539 16.9004 805.056 16.7318 805.439 16.3945C805.826 16.0573 806.02 15.6061 806.02 15.041C806.02 14.4258 805.835 13.9541 805.466 13.626C805.101 13.2979 804.573 13.1315 803.88 13.127H801.87V16.9004Z" fill="#171C8F"/>
<path d="M313.881 18.5684C313.826 19.6712 313.553 20.5417 313.061 21.1797C312.568 21.8177 311.91 22.1367 311.085 22.1367C310.233 22.1367 309.686 21.7539 309.444 20.9883C309.198 21.3757 308.916 21.665 308.597 21.8564C308.282 22.0433 307.956 22.1367 307.619 22.1367C306.972 22.1367 306.482 21.8724 306.149 21.3438C305.817 20.8151 305.694 20.0837 305.78 19.1494C305.849 18.3975 306.02 17.7275 306.293 17.1396C306.571 16.5472 306.926 16.0824 307.359 15.7451C307.797 15.4079 308.255 15.2393 308.733 15.2393C309.103 15.2393 309.433 15.2894 309.725 15.3896C310.016 15.4854 310.344 15.6768 310.709 15.9639L310.354 19.751C310.267 20.8037 310.559 21.3301 311.229 21.3301C311.743 21.3301 312.16 21.0749 312.479 20.5645C312.799 20.054 312.972 19.3887 312.999 18.5684C313.086 16.7956 312.755 15.4443 312.008 14.5146C311.265 13.585 310.132 13.1201 308.61 13.1201C307.694 13.1201 306.881 13.348 306.17 13.8037C305.459 14.2549 304.898 14.9089 304.488 15.7656C304.078 16.6224 303.848 17.6113 303.798 18.7324C303.743 19.8626 303.88 20.8447 304.208 21.6787C304.536 22.5081 305.035 23.1416 305.705 23.5791C306.38 24.0212 307.193 24.2422 308.146 24.2422C308.556 24.2422 308.966 24.1921 309.376 24.0918C309.791 23.9915 310.135 23.8617 310.408 23.7021L310.661 24.4883C310.379 24.666 310.003 24.8118 309.533 24.9258C309.068 25.0397 308.597 25.0967 308.118 25.0967C306.979 25.0967 305.999 24.8392 305.179 24.3242C304.358 23.8138 303.743 23.0755 303.333 22.1094C302.927 21.1478 302.752 20.0221 302.807 18.7324C302.861 17.4792 303.142 16.3535 303.647 15.3555C304.153 14.3529 304.839 13.5804 305.705 13.0381C306.571 12.4912 307.549 12.2178 308.638 12.2178C309.772 12.2178 310.745 12.473 311.557 12.9834C312.368 13.4938 312.972 14.2298 313.368 15.1914C313.765 16.153 313.936 17.2786 313.881 18.5684ZM306.867 19.1494C306.803 19.7965 306.863 20.2933 307.045 20.6396C307.232 20.986 307.526 21.1592 307.927 21.1592C308.2 21.1592 308.462 21.043 308.713 20.8105C308.968 20.5781 309.178 20.2454 309.342 19.8125L309.349 19.751L309.663 16.3125C309.408 16.1803 309.134 16.1143 308.843 16.1143C308.31 16.1143 307.868 16.3854 307.517 16.9277C307.17 17.4701 306.954 18.2106 306.867 19.1494ZM325.322 20.6943C324.985 21.1774 324.513 21.5397 323.907 21.7812C323.305 22.0182 322.604 22.1367 321.802 22.1367C320.99 22.1367 320.27 21.9476 319.641 21.5693C319.012 21.1865 318.525 20.6442 318.178 19.9424C317.837 19.2406 317.661 18.4271 317.652 17.502V16.6338C317.652 15.1344 318.001 13.9723 318.698 13.1475C319.4 12.3226 320.384 11.9102 321.651 11.9102C322.69 11.9102 323.526 12.1768 324.16 12.71C324.793 13.2386 325.181 13.9906 325.322 14.9658H324.01C323.763 13.6488 322.98 12.9902 321.658 12.9902C320.778 12.9902 320.111 13.3001 319.655 13.9199C319.204 14.5352 318.976 15.4284 318.971 16.5996V17.4131C318.971 18.5296 319.227 19.4183 319.737 20.0791C320.247 20.7354 320.938 21.0635 321.808 21.0635C322.301 21.0635 322.731 21.0088 323.1 20.8994C323.469 20.79 323.775 20.6055 324.016 20.3457V18.1104H321.713V17.0439H325.322V20.6943ZM335.252 19.4023H331.083L330.146 22H328.792L332.593 12.0469H333.742L337.549 22H336.203L335.252 19.4023ZM331.479 18.3223H334.863L333.167 13.667L331.479 18.3223ZM344.78 17.9736H342.442V22H341.122V12.0469H344.417C345.538 12.0469 346.4 12.3021 347.001 12.8125C347.607 13.3229 347.91 14.0658 347.91 15.041C347.91 15.6608 347.742 16.2008 347.405 16.6611C347.072 17.1214 346.607 17.4655 346.01 17.6934L348.348 21.918V22H346.94L344.78 17.9736ZM342.442 16.9004H344.458C345.11 16.9004 345.627 16.7318 346.01 16.3945C346.397 16.0573 346.591 15.6061 346.591 15.041C346.591 14.4258 346.407 13.9541 346.037 13.626C345.673 13.2979 345.144 13.1315 344.451 13.127H342.442V16.9004ZM351.996 22V12.0469H354.806C355.672 12.0469 356.437 12.2383 357.103 12.6211C357.768 13.0039 358.281 13.5485 358.641 14.2549C359.005 14.9613 359.19 15.7725 359.194 16.6885V17.3242C359.194 18.263 359.012 19.0856 358.647 19.792C358.287 20.4984 357.77 21.0407 357.096 21.4189C356.426 21.7972 355.644 21.9909 354.751 22H351.996ZM353.309 13.127V20.9268H354.689C355.701 20.9268 356.487 20.6123 357.048 19.9834C357.613 19.3545 357.896 18.459 357.896 17.2969V16.7158C357.896 15.5856 357.629 14.7083 357.096 14.084C356.567 13.4551 355.815 13.1361 354.84 13.127H353.309ZM369.05 17.3994H364.736V20.9268H369.747V22H363.424V12.0469H369.679V13.127H364.736V16.3262H369.05V17.3994ZM381.27 22H379.951L374.94 14.3301V22H373.621V12.0469H374.94L379.964 19.751V12.0469H381.27V22ZM393.162 18.8418C393.039 19.8945 392.65 20.708 391.993 21.2822C391.342 21.8519 390.474 22.1367 389.389 22.1367C388.213 22.1367 387.27 21.7152 386.559 20.8721C385.853 20.029 385.499 18.901 385.499 17.4883V16.5312C385.499 15.6061 385.663 14.7926 385.992 14.0908C386.324 13.389 386.794 12.8512 387.4 12.4775C388.006 12.0993 388.708 11.9102 389.505 11.9102C390.562 11.9102 391.41 12.2064 392.048 12.7988C392.686 13.3867 393.058 14.2025 393.162 15.2461H391.843C391.729 14.4531 391.481 13.8789 391.098 13.5234C390.72 13.168 390.189 12.9902 389.505 12.9902C388.667 12.9902 388.008 13.3001 387.53 13.9199C387.056 14.5397 386.819 15.4215 386.819 16.5654V17.5293C386.819 18.6094 387.044 19.4684 387.495 20.1064C387.947 20.7445 388.578 21.0635 389.389 21.0635C390.118 21.0635 390.676 20.8994 391.064 20.5713C391.456 20.2386 391.715 19.6621 391.843 18.8418H393.162ZM398.608 22H397.296V12.0469H398.608V22ZM409.927 13.127H406.727V22H405.422V13.127H402.229V12.0469H409.927V13.127ZM416.788 17.0439L419.385 12.0469H420.876L417.444 18.2881V22H416.131V18.2881L412.7 12.0469H414.204L416.788 17.0439ZM431.517 18.8418C431.394 19.8945 431.004 20.708 430.348 21.2822C429.696 21.8519 428.828 22.1367 427.744 22.1367C426.568 22.1367 425.624 21.7152 424.913 20.8721C424.207 20.029 423.854 18.901 423.854 17.4883V16.5312C423.854 15.6061 424.018 14.7926 424.346 14.0908C424.679 13.389 425.148 12.8512 425.754 12.4775C426.36 12.0993 427.062 11.9102 427.86 11.9102C428.917 11.9102 429.765 12.2064 430.403 12.7988C431.041 13.3867 431.412 14.2025 431.517 15.2461H430.198C430.084 14.4531 429.835 13.8789 429.452 13.5234C429.074 13.168 428.543 12.9902 427.86 12.9902C427.021 12.9902 426.363 13.3001 425.884 13.9199C425.41 14.5397 425.173 15.4215 425.173 16.5654V17.5293C425.173 18.6094 425.399 19.4684 425.85 20.1064C426.301 20.7445 426.932 21.0635 427.744 21.0635C428.473 21.0635 429.031 20.8994 429.418 20.5713C429.81 20.2386 430.07 19.6621 430.198 18.8418H431.517ZM441.181 17.3994H436.867V20.9268H441.878V22H435.555V12.0469H441.81V13.127H436.867V16.3262H441.181V17.3994ZM453.401 22H452.082L447.071 14.3301V22H445.752V12.0469H447.071L452.096 19.751V12.0469H453.401V22ZM464.644 13.127H461.445V22H460.139V13.127H456.947V12.0469H464.644V13.127ZM473.987 17.3994H469.673V20.9268H474.684V22H468.361V12.0469H474.616V13.127H469.673V16.3262H473.987V17.3994ZM482.208 17.9736H479.87V22H478.551V12.0469H481.846C482.967 12.0469 483.828 12.3021 484.43 12.8125C485.036 13.3229 485.339 14.0658 485.339 15.041C485.339 15.6608 485.17 16.2008 484.833 16.6611C484.5 17.1214 484.036 17.4655 483.439 17.6934L485.777 21.918V22H484.368L482.208 17.9736ZM479.87 16.9004H481.887C482.539 16.9004 483.056 16.7318 483.439 16.3945C483.826 16.0573 484.02 15.6061 484.02 15.041C484.02 14.4258 483.835 13.9541 483.466 13.626C483.101 13.2979 482.573 13.1315 481.88 13.127H479.87V16.9004Z" fill="#171C8F"/>
<g clip-path="url(#clip3_1_70)">
<path d="M237 1C223.245 1 212 12.2 212 25.9V37H262V25.9C262 12.2 250.805 1 237 1ZM212.954 36.05V25.9C212.954 12.7 223.747 1.95 237 1.95C250.253 1.95 261.046 12.7 261.046 25.9V36H212.954V36.05Z" fill="#2D3185"/>
<path d="M253.466 27.1H240.815L253.165 23.8C253.416 23.75 253.566 23.45 253.516 23.2C253.466 22.95 253.165 22.8 252.914 22.85L240.614 26.2L251.759 19.8C252.01 19.65 252.06 19.4 251.91 19.15C251.759 18.9 251.508 18.85 251.257 19L240.062 25.4L249.249 16.25C249.349 16.15 249.4 16.05 249.4 15.9C249.4 15.75 249.349 15.65 249.249 15.55C249.149 15.45 249.048 15.4 248.898 15.4C248.747 15.4 248.647 15.45 248.546 15.55L239.46 24.65L245.986 13.4C246.137 13.15 246.036 12.9 245.835 12.75C245.735 12.7 245.584 12.65 245.484 12.7C245.384 12.75 245.283 12.8 245.183 12.9L238.556 24.35L242.02 11.55C242.07 11.3 241.92 11.05 241.669 10.95C241.418 10.9 241.167 11.05 241.066 11.3L237.703 23.8V10.8C237.703 10.55 237.502 10.35 237.251 10.35C237 10.35 236.799 10.55 236.799 10.8V23.8L233.386 11.2C233.335 11.1 233.285 10.95 233.185 10.9C233.084 10.85 232.934 10.8 232.833 10.85C232.582 10.9 232.432 11.2 232.482 11.45L235.946 24.35L229.169 12.75C229.018 12.5 228.767 12.45 228.516 12.6C228.416 12.65 228.315 12.75 228.315 12.9C228.265 13 228.315 13.15 228.365 13.25L234.992 24.7L225.655 15.35C225.554 15.25 225.454 15.2 225.303 15.2C225.153 15.2 225.052 15.25 224.952 15.35C224.851 15.45 224.801 15.55 224.801 15.7C224.801 15.85 224.851 15.95 224.952 16.05L234.339 25.4L222.894 18.8C222.793 18.75 222.643 18.7 222.542 18.75C222.442 18.8 222.341 18.85 222.241 18.95C222.09 19.2 222.191 19.45 222.392 19.6L233.837 26.2L221.137 22.8C221.036 22.75 220.886 22.8 220.785 22.85C220.685 22.9 220.584 23 220.584 23.15C220.534 23.25 220.584 23.4 220.635 23.5C220.685 23.6 220.785 23.7 220.936 23.7L233.586 27.1H220.534C220.283 27.1 220.082 27.3 220.082 27.55C220.082 27.8 220.283 28 220.534 28H253.466C253.717 28 253.918 27.8 253.918 27.55C253.918 27.3 253.767 27.1 253.466 27.1Z" fill="#2D3185"/>
</g>
<path d="M-9.11914 18.5684C-9.17383 19.6712 -9.44727 20.5417 -9.93945 21.1797C-10.4316 21.8177 -11.0902 22.1367 -11.915 22.1367C-12.7673 22.1367 -13.3141 21.7539 -13.5557 20.9883C-13.8018 21.3757 -14.0843 21.665 -14.4033 21.8564C-14.7178 22.0433 -15.0436 22.1367 -15.3809 22.1367C-16.028 22.1367 -16.5179 21.8724 -16.8506 21.3438C-17.1833 20.8151 -17.3063 20.0837 -17.2197 19.1494C-17.1514 18.3975 -16.9805 17.7275 -16.707 17.1396C-16.429 16.5472 -16.0736 16.0824 -15.6406 15.7451C-15.2031 15.4079 -14.7451 15.2393 -14.2666 15.2393C-13.8975 15.2393 -13.5671 15.2894 -13.2754 15.3896C-12.9837 15.4854 -12.6556 15.6768 -12.291 15.9639L-12.6465 19.751C-12.7331 20.8037 -12.4414 21.3301 -11.7715 21.3301C-11.2565 21.3301 -10.8395 21.0749 -10.5205 20.5645C-10.2015 20.054 -10.0283 19.3887 -10.001 18.5684C-9.91439 16.7956 -10.2448 15.4443 -10.9922 14.5146C-11.735 13.585 -12.8675 13.1201 -14.3896 13.1201C-15.3057 13.1201 -16.1191 13.348 -16.8301 13.8037C-17.541 14.2549 -18.1016 14.9089 -18.5117 15.7656C-18.9219 16.6224 -19.152 17.6113 -19.2021 18.7324C-19.2568 19.8626 -19.1201 20.8447 -18.792 21.6787C-18.4639 22.5081 -17.9648 23.1416 -17.2949 23.5791C-16.6204 24.0212 -15.807 24.2422 -14.8545 24.2422C-14.4443 24.2422 -14.0342 24.1921 -13.624 24.0918C-13.2093 23.9915 -12.8652 23.8617 -12.5918 23.7021L-12.3389 24.4883C-12.6214 24.666 -12.9974 24.8118 -13.4668 24.9258C-13.9316 25.0397 -14.4033 25.0967 -14.8818 25.0967C-16.0212 25.0967 -17.001 24.8392 -17.8213 24.3242C-18.6416 23.8138 -19.2568 23.0755 -19.667 22.1094C-20.0726 21.1478 -20.248 20.0221 -20.1934 18.7324C-20.1387 17.4792 -19.8584 16.3535 -19.3525 15.3555C-18.8467 14.3529 -18.1608 13.5804 -17.2949 13.0381C-16.429 12.4912 -15.4515 12.2178 -14.3623 12.2178C-13.2275 12.2178 -12.2546 12.473 -11.4434 12.9834C-10.6322 13.4938 -10.0283 14.2298 -9.63184 15.1914C-9.23535 16.153 -9.06445 17.2786 -9.11914 18.5684ZM-16.1328 19.1494C-16.1966 19.7965 -16.1374 20.2933 -15.9551 20.6396C-15.7682 20.986 -15.4743 21.1592 -15.0732 21.1592C-14.7998 21.1592 -14.5378 21.043 -14.2871 20.8105C-14.0319 20.5781 -13.8223 20.2454 -13.6582 19.8125L-13.6514 19.751L-13.3369 16.3125C-13.5921 16.1803 -13.8656 16.1143 -14.1572 16.1143C-14.6904 16.1143 -15.1325 16.3854 -15.4834 16.9277C-15.8298 17.4701 -16.0462 18.2106 -16.1328 19.1494ZM2.32203 20.6943C1.98479 21.1774 1.51311 21.5397 0.906992 21.7812C0.305429 22.0182 -0.396393 22.1367 -1.19848 22.1367C-2.00967 22.1367 -2.72973 21.9476 -3.35863 21.5693C-3.98754 21.1865 -4.47517 20.6442 -4.82152 19.9424C-5.16332 19.2406 -5.33878 18.4271 -5.34789 17.502V16.6338C-5.34789 15.1344 -4.99926 13.9723 -4.30199 13.1475C-3.60017 12.3226 -2.61579 11.9102 -1.34887 11.9102C-0.309805 11.9102 0.526458 12.1768 1.15992 12.71C1.79339 13.2386 2.18075 13.9906 2.32203 14.9658H1.00953C0.763437 13.6488 -0.0204169 12.9902 -1.34203 12.9902C-2.22159 12.9902 -2.88923 13.3001 -3.34496 13.9199C-3.79613 14.5352 -4.024 15.4284 -4.02855 16.5996V17.4131C-4.02855 18.5296 -3.77335 19.4183 -3.26293 20.0791C-2.75251 20.7354 -2.06208 21.0635 -1.19164 21.0635C-0.699453 21.0635 -0.268789 21.0088 0.100351 20.8994C0.469492 20.79 0.774831 20.6055 1.01637 20.3457V18.1104H-1.28734V17.0439H2.32203V20.6943ZM12.2525 19.4023H8.08254L7.14602 22H5.7925L9.59328 12.0469H10.7417L14.5493 22H13.2027L12.2525 19.4023ZM8.47902 18.3223H11.8628L10.1675 13.667L8.47902 18.3223ZM21.7796 17.9736H19.4417V22H18.1223V12.0469H21.4173C22.5384 12.0469 23.3997 12.3021 24.0013 12.8125C24.6074 13.3229 24.9104 14.0658 24.9104 15.041C24.9104 15.6608 24.7418 16.2008 24.4046 16.6611C24.0719 17.1214 23.607 17.4655 23.01 17.6934L25.3479 21.918V22H23.9397L21.7796 17.9736ZM19.4417 16.9004H21.4583C22.11 16.9004 22.6272 16.7318 23.01 16.3945C23.3974 16.0573 23.5911 15.6061 23.5911 15.041C23.5911 14.4258 23.4065 13.9541 23.0374 13.626C22.6728 13.2979 22.1442 13.1315 21.4514 13.127H19.4417V16.9004ZM28.9961 22V12.0469H31.8057C32.6716 12.0469 33.4372 12.2383 34.1026 12.6211C34.7679 13.0039 35.2806 13.5485 35.6407 14.2549C36.0052 14.9613 36.1898 15.7725 36.1944 16.6885V17.3242C36.1944 18.263 36.0121 19.0856 35.6475 19.792C35.2875 20.4984 34.7702 21.0407 34.0957 21.4189C33.4258 21.7972 32.6442 21.9909 31.751 22H28.9961ZM30.3086 13.127V20.9268H31.6895C32.7012 20.9268 33.4873 20.6123 34.0479 19.9834C34.613 19.3545 34.8955 18.459 34.8955 17.2969V16.7158C34.8955 15.5856 34.6289 14.7083 34.0957 14.084C33.5671 13.4551 32.8151 13.1361 31.8399 13.127H30.3086ZM46.0496 17.3994H41.7361V20.9268H46.7469V22H40.4236V12.0469H46.6785V13.127H41.7361V16.3262H46.0496V17.3994ZM58.2701 22H56.9507L51.94 14.3301V22H50.6207V12.0469H51.94L56.9644 19.751V12.0469H58.2701V22ZM70.1624 18.8418C70.0394 19.8945 69.6497 20.708 68.9935 21.2822C68.3418 21.8519 67.4736 22.1367 66.389 22.1367C65.2132 22.1367 64.2698 21.7152 63.5589 20.8721C62.8525 20.029 62.4993 18.901 62.4993 17.4883V16.5312C62.4993 15.6061 62.6634 14.7926 62.9915 14.0908C63.3242 13.389 63.7936 12.8512 64.3997 12.4775C65.0058 12.0993 65.7077 11.9102 66.5052 11.9102C67.5625 11.9102 68.4101 12.2064 69.0482 12.7988C69.6862 13.3867 70.0576 14.2025 70.1624 15.2461H68.8431C68.7292 14.4531 68.4808 13.8789 68.098 13.5234C67.7197 13.168 67.1888 12.9902 66.5052 12.9902C65.6667 12.9902 65.0081 13.3001 64.5296 13.9199C64.0557 14.5397 63.8187 15.4215 63.8187 16.5654V17.5293C63.8187 18.6094 64.0443 19.4684 64.4954 20.1064C64.9466 20.7445 65.5778 21.0635 66.389 21.0635C67.1182 21.0635 67.6764 20.8994 68.0638 20.5713C68.4557 20.2386 68.7155 19.6621 68.8431 18.8418H70.1624ZM75.6085 22H74.296V12.0469H75.6085V22ZM86.9266 13.127H83.7274V22H82.4217V13.127H79.2293V12.0469H86.9266V13.127ZM93.7877 17.0439L96.3854 12.0469H97.8756L94.4439 18.2881V22H93.1314V18.2881L89.6998 12.0469H91.2037L93.7877 17.0439ZM108.517 18.8418C108.394 19.8945 108.004 20.708 107.348 21.2822C106.696 21.8519 105.828 22.1367 104.744 22.1367C103.568 22.1367 102.624 21.7152 101.913 20.8721C101.207 20.029 100.854 18.901 100.854 17.4883V16.5312C100.854 15.6061 101.018 14.7926 101.346 14.0908C101.679 13.389 102.148 12.8512 102.754 12.4775C103.36 12.0993 104.062 11.9102 104.86 11.9102C105.917 11.9102 106.765 12.2064 107.403 12.7988C108.041 13.3867 108.412 14.2025 108.517 15.2461H107.198C107.084 14.4531 106.835 13.8789 106.452 13.5234C106.074 13.168 105.543 12.9902 104.86 12.9902C104.021 12.9902 103.363 13.3001 102.884 13.9199C102.41 14.5397 102.173 15.4215 102.173 16.5654V17.5293C102.173 18.6094 102.399 19.4684 102.85 20.1064C103.301 20.7445 103.932 21.0635 104.744 21.0635C105.473 21.0635 106.031 20.8994 106.418 20.5713C106.81 20.2386 107.07 19.6621 107.198 18.8418H108.517ZM118.181 17.3994H113.867V20.9268H118.878V22H112.555V12.0469H118.81V13.127H113.867V16.3262H118.181V17.3994ZM130.401 22H129.082L124.071 14.3301V22H122.752V12.0469H124.071L129.096 19.751V12.0469H130.401V22ZM141.644 13.127H138.445V22H137.139V13.127H133.947V12.0469H141.644V13.127ZM150.987 17.3994H146.673V20.9268H151.684V22H145.361V12.0469H151.616V13.127H146.673V16.3262H150.987V17.3994ZM159.208 17.9736H156.87V22H155.551V12.0469H158.846C159.967 12.0469 160.828 12.3021 161.43 12.8125C162.036 13.3229 162.339 14.0658 162.339 15.041C162.339 15.6608 162.17 16.2008 161.833 16.6611C161.5 17.1214 161.036 17.4655 160.439 17.6934L162.777 21.918V22H161.368L159.208 17.9736ZM156.87 16.9004H158.887C159.539 16.9004 160.056 16.7318 160.439 16.3945C160.826 16.0573 161.02 15.6061 161.02 15.041C161.02 14.4258 160.835 13.9541 160.466 13.626C160.101 13.2979 159.573 13.1315 158.88 13.127H156.87V16.9004Z" fill="#171C8F"/>
<defs>
<clipPath id="clip0_1_70">
<rect width="50" height="36" fill="white" transform="translate(1180 1)"/>
</clipPath>
<clipPath id="clip1_1_70">
<rect width="50" height="36" fill="white" transform="translate(858 1)"/>
</clipPath>
<clipPath id="clip2_1_70">
<rect width="50" height="36" fill="white" transform="translate(535 1)"/>
</clipPath>
<clipPath id="clip3_1_70">
<rect width="50" height="36" fill="white" transform="translate(212 1)"/>
</clipPath>
</defs>
</svg>
